<mxfile host="app.diagrams.net" agent="Mozilla/5.0 (Windows NT 10.0; Win64; x64) AppleWebKit/537.36 (KHTML, like Gecko) Chrome/131.0.0.0 Safari/537.36" version="25.0.3">
  <diagram name="Página-1" id="mBXIS_VfY2UCuBQ31OOC">
    <mxGraphModel dx="1650" dy="1487" grid="1" gridSize="10" guides="1" tooltips="1" connect="1" arrows="1" fold="1" page="1" pageScale="1" pageWidth="850" pageHeight="1100" math="0" shadow="0">
      <root>
        <mxCell id="0" />
        <mxCell id="1" parent="0" />
        <mxCell id="Bj0zikDQ8TC-RUXwNxDH-31" value="" style="group;fillColor=none;strokeColor=default;dashed=1;dashPattern=8 8;" parent="1" vertex="1" connectable="0">
          <mxGeometry x="-350" y="-870" width="1830" height="240" as="geometry" />
        </mxCell>
        <mxCell id="Bj0zikDQ8TC-RUXwNxDH-30" value="&lt;b&gt;Gestão de Usuários&lt;/b&gt;&lt;div&gt;&lt;font style=&quot;font-size: 11px;&quot;&gt;[Container]&lt;/font&gt;&lt;/div&gt;" style="text;html=1;align=left;verticalAlign=middle;whiteSpace=wrap;rounded=0;" parent="Bj0zikDQ8TC-RUXwNxDH-31" vertex="1">
          <mxGeometry y="209.99727272727273" width="120" height="21.81818181818182" as="geometry" />
        </mxCell>
        <object placeholders="1" c4Name="User Service" c4Type="Component" c4Technology="Spring Bean" c4Description="Fornece métodos para obter informações sensíveis dos pacientes" label="&lt;font style=&quot;font-size: 16px&quot;&gt;&lt;b&gt;%c4Name%&lt;/b&gt;&lt;/font&gt;&lt;div&gt;[%c4Type%: %c4Technology%]&lt;/div&gt;&lt;br&gt;&lt;div&gt;&lt;font style=&quot;font-size: 11px&quot;&gt;%c4Description%&lt;/font&gt;&lt;/div&gt;" id="BTdbcWyXbX49fT9W2Y7Z-2">
          <mxCell style="rounded=1;whiteSpace=wrap;html=1;labelBackgroundColor=none;fillColor=#63BEF2;fontColor=#ffffff;align=center;arcSize=6;strokeColor=#2086C9;metaEdit=1;resizable=0;points=[[0.25,0,0],[0.5,0,0],[0.75,0,0],[1,0.25,0],[1,0.5,0],[1,0.75,0],[0.75,1,0],[0.5,1,0],[0.25,1,0],[0,0.75,0],[0,0.5,0],[0,0.25,0]];" vertex="1" parent="Bj0zikDQ8TC-RUXwNxDH-31">
            <mxGeometry x="550" y="57.27272727272727" width="240" height="120" as="geometry" />
          </mxCell>
        </object>
        <object placeholders="1" c4Name="Audit Logger" c4Type="Component" c4Technology="Spring Bean" c4Description="Para registrar alterações no sistema relacionadas a usuários, como criação, atualização e deleção" label="&lt;font style=&quot;font-size: 16px&quot;&gt;&lt;b&gt;%c4Name%&lt;/b&gt;&lt;/font&gt;&lt;div&gt;[%c4Type%: %c4Technology%]&lt;/div&gt;&lt;br&gt;&lt;div&gt;&lt;font style=&quot;font-size: 11px&quot;&gt;%c4Description%&lt;/font&gt;&lt;/div&gt;" id="BTdbcWyXbX49fT9W2Y7Z-3">
          <mxCell style="rounded=1;whiteSpace=wrap;html=1;labelBackgroundColor=none;fillColor=#63BEF2;fontColor=#ffffff;align=center;arcSize=6;strokeColor=#2086C9;metaEdit=1;resizable=0;points=[[0.25,0,0],[0.5,0,0],[0.75,0,0],[1,0.25,0],[1,0.5,0],[1,0.75,0],[0.75,1,0],[0.5,1,0],[0.25,1,0],[0,0.75,0],[0,0.5,0],[0,0.25,0]];" vertex="1" parent="Bj0zikDQ8TC-RUXwNxDH-31">
            <mxGeometry x="1010" y="57.27272727272727" width="240" height="120" as="geometry" />
          </mxCell>
        </object>
        <object placeholders="1" c4Name="User Repository" c4Type="Component" c4Technology="Spring Data / JPA" c4Description="Acessa as informações necessárias no&#xa;banco de dados" label="&lt;font style=&quot;font-size: 16px&quot;&gt;&lt;b&gt;%c4Name%&lt;/b&gt;&lt;/font&gt;&lt;div&gt;[%c4Type%: %c4Technology%]&lt;/div&gt;&lt;br&gt;&lt;div&gt;&lt;font style=&quot;font-size: 11px&quot;&gt;%c4Description%&lt;/font&gt;&lt;/div&gt;" id="BTdbcWyXbX49fT9W2Y7Z-4">
          <mxCell style="rounded=1;whiteSpace=wrap;html=1;labelBackgroundColor=none;fillColor=#63BEF2;fontColor=#ffffff;align=center;arcSize=6;strokeColor=#2086C9;metaEdit=1;resizable=0;points=[[0.25,0,0],[0.5,0,0],[0.75,0,0],[1,0.25,0],[1,0.5,0],[1,0.75,0],[0.75,1,0],[0.5,1,0],[0.25,1,0],[0,0.75,0],[0,0.5,0],[0,0.25,0]];" vertex="1" parent="Bj0zikDQ8TC-RUXwNxDH-31">
            <mxGeometry x="1470" y="57.27272727272727" width="240" height="120" as="geometry" />
          </mxCell>
        </object>
        <object placeholders="1" c4Name="User Controller" c4Type="Component" c4Technology="Spring MVC Rest Controller" c4Description="Permite que os administradores acessem dados de pessoas e preferências dos usuários" label="&lt;font style=&quot;font-size: 16px&quot;&gt;&lt;b&gt;%c4Name%&lt;/b&gt;&lt;/font&gt;&lt;div&gt;[%c4Type%: %c4Technology%]&lt;/div&gt;&lt;br&gt;&lt;div&gt;&lt;font style=&quot;font-size: 11px&quot;&gt;%c4Description%&lt;/font&gt;&lt;/div&gt;" id="BTdbcWyXbX49fT9W2Y7Z-1">
          <mxCell style="rounded=1;whiteSpace=wrap;html=1;labelBackgroundColor=none;fillColor=#63BEF2;fontColor=#ffffff;align=center;arcSize=6;strokeColor=#2086C9;metaEdit=1;resizable=0;points=[[0.25,0,0],[0.5,0,0],[0.75,0,0],[1,0.25,0],[1,0.5,0],[1,0.75,0],[0.75,1,0],[0.5,1,0],[0.25,1,0],[0,0.75,0],[0,0.5,0],[0,0.25,0]];" vertex="1" parent="Bj0zikDQ8TC-RUXwNxDH-31">
            <mxGeometry x="120" y="57.27272727272727" width="240" height="120" as="geometry" />
          </mxCell>
        </object>
        <mxCell id="Bj0zikDQ8TC-RUXwNxDH-9" style="edgeStyle=orthogonalEdgeStyle;rounded=0;orthogonalLoop=1;jettySize=auto;html=1;dashed=1;dashPattern=8 8;exitX=1;exitY=0.5;exitDx=0;exitDy=0;exitPerimeter=0;entryX=0;entryY=0.5;entryDx=0;entryDy=0;entryPerimeter=0;" parent="Bj0zikDQ8TC-RUXwNxDH-31" source="BTdbcWyXbX49fT9W2Y7Z-1" target="BTdbcWyXbX49fT9W2Y7Z-2" edge="1">
          <mxGeometry relative="1" as="geometry">
            <mxPoint x="380" y="90" as="sourcePoint" />
            <mxPoint x="550" y="90" as="targetPoint" />
          </mxGeometry>
        </mxCell>
        <mxCell id="Bj0zikDQ8TC-RUXwNxDH-11" value="Utiliza" style="edgeLabel;html=1;align=center;verticalAlign=middle;resizable=0;points=[];" parent="Bj0zikDQ8TC-RUXwNxDH-9" vertex="1" connectable="0">
          <mxGeometry x="-0.0889" relative="1" as="geometry">
            <mxPoint as="offset" />
          </mxGeometry>
        </mxCell>
        <mxCell id="Bj0zikDQ8TC-RUXwNxDH-25" style="edgeStyle=orthogonalEdgeStyle;rounded=0;orthogonalLoop=1;jettySize=auto;html=1;dashed=1;dashPattern=8 8;exitX=1;exitY=0.5;exitDx=0;exitDy=0;exitPerimeter=0;entryX=0;entryY=0.5;entryDx=0;entryDy=0;entryPerimeter=0;" parent="Bj0zikDQ8TC-RUXwNxDH-31" source="BTdbcWyXbX49fT9W2Y7Z-2" target="BTdbcWyXbX49fT9W2Y7Z-3" edge="1">
          <mxGeometry relative="1" as="geometry">
            <mxPoint x="840" y="90" as="sourcePoint" />
            <mxPoint x="1010" y="90" as="targetPoint" />
          </mxGeometry>
        </mxCell>
        <mxCell id="Bj0zikDQ8TC-RUXwNxDH-27" value="Utiliza" style="edgeLabel;html=1;align=center;verticalAlign=middle;resizable=0;points=[];" parent="Bj0zikDQ8TC-RUXwNxDH-25" vertex="1" connectable="0">
          <mxGeometry x="-0.0593" relative="1" as="geometry">
            <mxPoint as="offset" />
          </mxGeometry>
        </mxCell>
        <mxCell id="Bj0zikDQ8TC-RUXwNxDH-26" style="edgeStyle=orthogonalEdgeStyle;rounded=0;orthogonalLoop=1;jettySize=auto;html=1;dashed=1;dashPattern=8 8;exitX=1;exitY=0.5;exitDx=0;exitDy=0;exitPerimeter=0;entryX=0;entryY=0.5;entryDx=0;entryDy=0;entryPerimeter=0;" parent="Bj0zikDQ8TC-RUXwNxDH-31" source="BTdbcWyXbX49fT9W2Y7Z-3" target="BTdbcWyXbX49fT9W2Y7Z-4" edge="1">
          <mxGeometry relative="1" as="geometry">
            <mxPoint x="1300.0000000000005" y="90" as="sourcePoint" />
            <mxPoint x="1469.9999999999995" y="90" as="targetPoint" />
          </mxGeometry>
        </mxCell>
        <mxCell id="Bj0zikDQ8TC-RUXwNxDH-28" value="Utiliza" style="edgeLabel;html=1;align=center;verticalAlign=middle;resizable=0;points=[];" parent="Bj0zikDQ8TC-RUXwNxDH-26" vertex="1" connectable="0">
          <mxGeometry x="-0.0286" y="2" relative="1" as="geometry">
            <mxPoint y="2" as="offset" />
          </mxGeometry>
        </mxCell>
        <mxCell id="Bj0zikDQ8TC-RUXwNxDH-3" style="edgeStyle=orthogonalEdgeStyle;rounded=0;orthogonalLoop=1;jettySize=auto;html=1;dashed=1;dashPattern=8 8;exitX=0.5;exitY=1;exitDx=0;exitDy=0;exitPerimeter=0;entryX=0;entryY=0.5;entryDx=0;entryDy=0;entryPerimeter=0;" parent="1" source="Bj0zikDQ8TC-RUXwNxDH-1" target="BTdbcWyXbX49fT9W2Y7Z-1" edge="1">
          <mxGeometry relative="1" as="geometry">
            <mxPoint x="-259.9999999999998" y="-705" as="targetPoint" />
          </mxGeometry>
        </mxCell>
        <mxCell id="Bj0zikDQ8TC-RUXwNxDH-4" value="HTTP" style="edgeLabel;html=1;align=center;verticalAlign=middle;resizable=0;points=[];" parent="Bj0zikDQ8TC-RUXwNxDH-3" vertex="1" connectable="0">
          <mxGeometry x="-0.0375" y="2" relative="1" as="geometry">
            <mxPoint x="-2" y="-56" as="offset" />
          </mxGeometry>
        </mxCell>
        <object placeholders="1" c4Name="API GATEWAY" c4Type="Container" c4Technology="Kong Gateway " c4Description="Roteia as requisições dos usuários para os microserviços apropriados, centraliza a autenticação e autorização de acesso" label="&lt;font style=&quot;font-size: 16px&quot;&gt;&lt;b&gt;%c4Name%&lt;/b&gt;&lt;/font&gt;&lt;div&gt;[%c4Type%: %c4Technology%]&lt;/div&gt;&lt;br&gt;&lt;div&gt;&lt;font style=&quot;font-size: 11px&quot;&gt;&lt;font color=&quot;#E6E6E6&quot;&gt;%c4Description%&lt;/font&gt;&lt;/div&gt;" id="Bj0zikDQ8TC-RUXwNxDH-1">
          <mxCell style="rounded=1;whiteSpace=wrap;html=1;fontSize=11;labelBackgroundColor=none;fillColor=#23A2D9;fontColor=#ffffff;align=center;arcSize=10;strokeColor=#0E7DAD;metaEdit=1;resizable=0;points=[[0.25,0,0],[0.5,0,0],[0.75,0,0],[1,0.25,0],[1,0.5,0],[1,0.75,0],[0.75,1,0],[0.5,1,0],[0.25,1,0],[0,0.75,0],[0,0.5,0],[0,0.25,0]];" parent="1" vertex="1">
            <mxGeometry x="-520" y="-1050" width="240" height="120" as="geometry" />
          </mxCell>
        </object>
        <mxCell id="Bj0zikDQ8TC-RUXwNxDH-17" style="edgeStyle=orthogonalEdgeStyle;rounded=0;orthogonalLoop=1;jettySize=auto;html=1;dashed=1;dashPattern=8 8;exitX=1;exitY=0.5;exitDx=0;exitDy=0;exitPerimeter=0;" parent="1" source="BTdbcWyXbX49fT9W2Y7Z-4" target="Bj0zikDQ8TC-RUXwNxDH-13" edge="1">
          <mxGeometry relative="1" as="geometry">
            <mxPoint x="1409.9999999999995" y="-705" as="sourcePoint" />
          </mxGeometry>
        </mxCell>
        <mxCell id="Bj0zikDQ8TC-RUXwNxDH-18" value="Lê e escreve em" style="edgeLabel;html=1;align=center;verticalAlign=middle;resizable=0;points=[];" parent="Bj0zikDQ8TC-RUXwNxDH-17" vertex="1" connectable="0">
          <mxGeometry y="2" relative="1" as="geometry">
            <mxPoint x="-2" y="117" as="offset" />
          </mxGeometry>
        </mxCell>
        <object placeholders="1" c4Name="Banco de dados" c4Type="Container" c4Technology="PostgreSQL" c4Description="" label="&lt;font style=&quot;font-size: 16px&quot;&gt;&lt;b&gt;%c4Name%&lt;/b&gt;&lt;/font&gt;&lt;div&gt;[%c4Type%:&amp;nbsp;%c4Technology%]&lt;/div&gt;&lt;br&gt;&lt;div&gt;&lt;font style=&quot;font-size: 11px&quot;&gt;&lt;font color=&quot;#E6E6E6&quot;&gt;%c4Description%&lt;/font&gt;&lt;/div&gt;" id="Bj0zikDQ8TC-RUXwNxDH-13">
          <mxCell style="shape=cylinder3;size=15;whiteSpace=wrap;html=1;boundedLbl=1;rounded=0;labelBackgroundColor=none;fillColor=#23A2D9;fontSize=12;fontColor=#ffffff;align=center;strokeColor=#0E7DAD;metaEdit=1;points=[[0.5,0,0],[1,0.25,0],[1,0.5,0],[1,0.75,0],[0.5,1,0],[0,0.75,0],[0,0.5,0],[0,0.25,0]];resizable=0;" parent="1" vertex="1">
            <mxGeometry x="1420" y="-400" width="240" height="120" as="geometry" />
          </mxCell>
        </object>
        <object placeholders="1" c4Name="Autenticação" c4Type="Container" c4Technology="Java Spring Boot " c4Description="Microsserviço responsável por gerenciar a autenticação dos usuários e garantir que apenas usuários válidos possam reportar casos ou acessar&#xa;informações sensíveis." label="&lt;font style=&quot;font-size: 16px&quot;&gt;&lt;b&gt;%c4Name%&lt;/b&gt;&lt;/font&gt;&lt;div&gt;[%c4Type%:&amp;nbsp;%c4Technology%]&lt;/div&gt;&lt;br&gt;&lt;div&gt;&lt;font style=&quot;font-size: 11px&quot;&gt;&lt;font color=&quot;#E6E6E6&quot;&gt;%c4Description%&lt;/font&gt;&lt;/div&gt;" id="Bj0zikDQ8TC-RUXwNxDH-19">
          <mxCell style="shape=hexagon;size=50;perimeter=hexagonPerimeter2;whiteSpace=wrap;html=1;fixedSize=1;rounded=1;labelBackgroundColor=none;fillColor=#23A2D9;fontSize=12;fontColor=#ffffff;align=center;strokeColor=#0E7DAD;metaEdit=1;points=[[0.5,0,0],[1,0.25,0],[1,0.5,0],[1,0.75,0],[0.5,1,0],[0,0.75,0],[0,0.5,0],[0,0.25,0]];resizable=1;movable=1;rotatable=1;deletable=1;editable=1;locked=0;connectable=1;" parent="1" vertex="1">
            <mxGeometry x="-50" y="-490" width="290" height="210" as="geometry" />
          </mxCell>
        </object>
        <mxCell id="BTdbcWyXbX49fT9W2Y7Z-5" style="edgeStyle=orthogonalEdgeStyle;rounded=0;orthogonalLoop=1;jettySize=auto;html=1;entryX=0.5;entryY=0;entryDx=0;entryDy=0;entryPerimeter=0;dashed=1;dashPattern=8 8;startArrow=classic;startFill=1;" edge="1" parent="1" source="BTdbcWyXbX49fT9W2Y7Z-2" target="Bj0zikDQ8TC-RUXwNxDH-19">
          <mxGeometry relative="1" as="geometry" />
        </mxCell>
        <mxCell id="BTdbcWyXbX49fT9W2Y7Z-6" value="&#xa;&lt;span style=&quot;color: rgb(0, 0, 0); font-family: Helvetica; font-size: 11px; font-style: normal; font-variant-ligatures: normal; font-variant-caps: normal; font-weight: 400; letter-spacing: normal; orphans: 2; text-align: center; text-indent: 0px; text-transform: none; widows: 2; word-spacing: 0px; -webkit-text-stroke-width: 0px; white-space: nowrap; background-color: rgb(255, 255, 255); text-decoration-thickness: initial; text-decoration-style: initial; text-decoration-color: initial; display: inline !important; float: none;&quot;&gt;Utiliza o Container&amp;nbsp;&lt;/span&gt;&lt;div style=&quot;forced-color-adjust: none; color: rgb(0, 0, 0); font-family: Helvetica; font-size: 11px; font-style: normal; font-variant-ligatures: normal; font-variant-caps: normal; font-weight: 400; letter-spacing: normal; orphans: 2; text-align: center; text-indent: 0px; text-transform: none; widows: 2; word-spacing: 0px; -webkit-text-stroke-width: 0px; white-space: nowrap; text-decoration-thickness: initial; text-decoration-style: initial; text-decoration-color: initial;&quot;&gt;de Autenticação para&lt;/div&gt;&lt;div style=&quot;forced-color-adjust: none; color: rgb(0, 0, 0); font-family: Helvetica; font-size: 11px; font-style: normal; font-variant-ligatures: normal; font-variant-caps: normal; font-weight: 400; letter-spacing: normal; orphans: 2; text-align: center; text-indent: 0px; text-transform: none; widows: 2; word-spacing: 0px; -webkit-text-stroke-width: 0px; white-space: nowrap; text-decoration-thickness: initial; text-decoration-style: initial; text-decoration-color: initial;&quot;&gt;validar acessos&lt;/div&gt;&#xa;&#xa;" style="edgeLabel;html=1;align=center;verticalAlign=middle;resizable=0;points=[];" vertex="1" connectable="0" parent="BTdbcWyXbX49fT9W2Y7Z-5">
          <mxGeometry x="-0.2109" y="1" relative="1" as="geometry">
            <mxPoint x="-33" y="10" as="offset" />
          </mxGeometry>
        </mxCell>
      </root>
    </mxGraphModel>
  </diagram>
</mxfile>
